# xmcd
#
# Track frame offsets:
#	150
#	15994
#	27532
#	45354
#	61876
#	75117
#	88133
#	101557
#	114755
#	130062
#	145521
#	162863
#	177089
#	192955
#	208667
#	223121
#	237042
#	252922
#	268513
#	282861
#	300917
#	313393
#
# Disc length: 4363 seconds
#
# Revision: 0
# Processed by: cddbd v1.4PL0 Copyright (c) Steve Scherf et al.
# Submitted via: audiograbber 1.81.03
#
DISCID=1b110916
DTITLE=Truck Stop - Zu Hause  ·  Auf Achse
DYEAR=1900
DGENRE=
TTITLE0=Ich möcht so gern Dave Duddley hör'n
TTITLE1=Bleifuß Joe
TTITLE2=Meine Tür ist immer offen
TTITLE3=Hey Kleiner
TTITLE4=Cowboy bei der Bahn
TTITLE5=Die Frau mit dem Gurt
TTITLE6=Das Mädchen wird schöner mit jedem Glas Bier
TTITLE7=Alt und nur im Weg
TTITLE8=Henry's Farm
TTITLE9=Schuldlos im U.G.
TTITLE10=Die Zockerhöhle
TTITLE11=Nashville Tennessee
TTITLE12=Hannas Mann
TTITLE13=Ich rauch' zuviel
TTITLE14=Der Tramp
TTITLE15=Der letzte Trip
TTITLE16=Kopf oder Zahl
TTITLE17=Jeden Tag in einer anderen Stadt
TTITLE18=Der König von der Autobahn
TTITLE19=Sie will zurück nach München
TTITLE20=Die Zeiten
TTITLE21=Jetzt ist Schluß
EXTD=
EXTT0=
EXTT1=
EXTT2=
EXTT3=
EXTT4=
EXTT5=
EXTT6=
EXTT7=
EXTT8=
EXTT9=
EXTT10=
EXTT11=
EXTT12=
EXTT13=
EXTT14=
EXTT15=
EXTT16=
EXTT17=
EXTT18=
EXTT19=
EXTT20=
EXTT21=
PLAYORDER=
